<?xml version="1.0" encoding="UTF-8" standalone="no"?>
<!DOCTYPE svg PUBLIC "-//W3C//DTD SVG 1.1//EN"
 "http://www.w3.org/Graphics/SVG/1.1/DTD/svg11.dtd">
<!-- Generated by graphviz version 2.47.0 (20210316.0004)
 -->
<!-- Title: dependencies Pages: 1 -->
<svg width="1038pt" height="222pt"
 viewBox="0.00 0.00 1038.00 222.00" xmlns="http://www.w3.org/2000/svg" xmlns:xlink="http://www.w3.org/1999/xlink">
<g id="graph0" class="graph" transform="scale(1 1) rotate(0) translate(4 218)">
<title>dependencies</title>
<polygon fill="white" stroke="transparent" points="-4,4 -4,-218 1034,-218 1034,4 -4,4"/>
<text text-anchor="start" x="494.01" y="-42.4" font-family="Times-12" font-weight="bold" font-size="14.00">Legend</text>
<polygon fill="#ffffb3" stroke="transparent" points="281,-10 281,-30 301,-30 301,-10 281,-10"/>
<text text-anchor="start" x="304.63" y="-15.4" font-family="Times-12" font-size="14.00"> &#160;Declarations</text>
<polygon fill="#8dd3c7" stroke="transparent" points="394,-10 394,-30 414,-30 414,-10 394,-10"/>
<text text-anchor="start" x="417.73" y="-15.4" font-family="Times-12" font-size="14.00"> &#160;Module</text>
<polygon fill="#80b1d3" stroke="transparent" points="480,-10 480,-30 500,-30 500,-10 480,-10"/>
<text text-anchor="start" x="503.78" y="-15.4" font-family="Times-12" font-size="14.00"> &#160;Bootstrap</text>
<polygon fill="#fdb462" stroke="transparent" points="577,-10 577,-30 597,-30 597,-10 577,-10"/>
<text text-anchor="start" x="600.67" y="-15.4" font-family="Times-12" font-size="14.00"> &#160;Providers</text>
<polygon fill="#fb8072" stroke="transparent" points="673,-10 673,-30 693,-30 693,-10 673,-10"/>
<text text-anchor="start" x="696.73" y="-15.4" font-family="Times-12" font-size="14.00"> &#160;Exports</text>
<g id="clust1" class="cluster">
<title>cluster_AuthModule</title>
<polygon fill="none" stroke="black" stroke-dasharray="1,5" points="8,-70 8,-198 435,-198 435,-70 8,-70"/>
</g>
<g id="clust2" class="cluster">
<title>cluster_AuthModule_declarations</title>
<polygon fill="none" stroke="black" points="16,-78 16,-130 154,-130 154,-78 16,-78"/>
</g>
<g id="clust4" class="cluster">
<title>cluster_AuthModule_imports</title>
<polygon fill="none" stroke="black" points="162,-78 162,-130 427,-130 427,-78 162,-78"/>
</g>
<g id="clust20" class="cluster">
<title>cluster_SharedModule</title>
<polygon fill="none" stroke="black" stroke-dasharray="1,5" points="443,-138 443,-206 1022,-206 1022,-138 443,-138"/>
</g>
<g id="clust21" class="cluster">
<title>cluster_SharedModule_declarations</title>
<polygon fill="none" stroke="black" points="740,-146 740,-198 1014,-198 1014,-146 740,-146"/>
</g>
<g id="clust25" class="cluster">
<title>cluster_SharedModule_exports</title>
<polygon fill="none" stroke="black" points="451,-146 451,-198 732,-198 732,-146 451,-146"/>
</g>
<!-- SignupComponent -->
<g id="node1" class="node">
<title>SignupComponent</title>
<polygon fill="#ffffb3" stroke="black" points="145.51,-122 24.49,-122 24.49,-86 145.51,-86 145.51,-122"/>
<text text-anchor="middle" x="85" y="-99.8" font-family="Times,serif" font-size="14.00">SignupComponent</text>
</g>
<!-- AuthModule -->
<g id="node2" class="node">
<title>AuthModule</title>
<polygon fill="#8dd3c7" stroke="black" points="279.55,-190 276.55,-194 255.55,-194 252.55,-190 192.45,-190 192.45,-154 279.55,-154 279.55,-190"/>
<text text-anchor="middle" x="236" y="-167.8" font-family="Times,serif" font-size="14.00">AuthModule</text>
</g>
<!-- SignupComponent&#45;&gt;AuthModule -->
<g id="edge1" class="edge">
<title>SignupComponent&#45;&gt;AuthModule</title>
<path fill="none" stroke="black" d="M85,-122.22C85,-142.37 85,-172 85,-172 85,-172 182.32,-172 182.32,-172"/>
<polygon fill="black" stroke="black" points="182.32,-175.5 192.32,-172 182.32,-168.5 182.32,-175.5"/>
</g>
<!-- AuthRoutingModule -->
<g id="node3" class="node">
<title>AuthRoutingModule</title>
<polygon fill="#8dd3c7" stroke="black" points="302.17,-122 299.17,-126 278.17,-126 275.17,-122 169.83,-122 169.83,-86 302.17,-86 302.17,-122"/>
<text text-anchor="middle" x="236" y="-99.8" font-family="Times,serif" font-size="14.00">AuthRoutingModule</text>
</g>
<!-- AuthRoutingModule&#45;&gt;AuthModule -->
<g id="edge2" class="edge">
<title>AuthRoutingModule&#45;&gt;AuthModule</title>
<path fill="none" stroke="black" d="M236,-122.22C236,-122.22 236,-143.73 236,-143.73"/>
<polygon fill="black" stroke="black" points="232.5,-143.73 236,-153.73 239.5,-143.73 232.5,-143.73"/>
</g>
<!-- SharedModule -->
<g id="node4" class="node">
<title>SharedModule</title>
<polygon fill="#8dd3c7" stroke="black" points="419.42,-122 416.42,-126 395.42,-126 392.42,-122 320.58,-122 320.58,-86 419.42,-86 419.42,-122"/>
<text text-anchor="middle" x="370" y="-99.8" font-family="Times,serif" font-size="14.00">SharedModule</text>
</g>
<!-- SharedModule&#45;&gt;AuthModule -->
<g id="edge3" class="edge">
<title>SharedModule&#45;&gt;AuthModule</title>
<path fill="none" stroke="black" d="M353.6,-122.29C353.6,-144.21 353.6,-178 353.6,-178 353.6,-178 289.79,-178 289.79,-178"/>
<polygon fill="black" stroke="black" points="289.79,-174.5 279.79,-178 289.79,-181.5 289.79,-174.5"/>
</g>
<!-- FooterComponent  -->
<g id="node7" class="node">
<title>FooterComponent </title>
<polygon fill="#fb8072" stroke="black" points="723.88,-190 602.12,-190 602.12,-154 723.88,-154 723.88,-190"/>
<text text-anchor="middle" x="663" y="-167.8" font-family="Times,serif" font-size="14.00">FooterComponent </text>
</g>
<!-- SharedModule&#45;&gt;FooterComponent  -->
<g id="edge6" class="edge">
<title>SharedModule&#45;&gt;FooterComponent </title>
<path fill="none" stroke="black" stroke-dasharray="5,2" d="M419.37,-113C502.87,-113 663,-113 663,-113 663,-113 663,-143.98 663,-143.98"/>
<polygon fill="black" stroke="black" points="659.5,-143.98 663,-153.98 666.5,-143.98 659.5,-143.98"/>
</g>
<!-- HeaderComponent  -->
<g id="node8" class="node">
<title>HeaderComponent </title>
<polygon fill="#fb8072" stroke="black" points="584.74,-190 459.26,-190 459.26,-154 584.74,-154 584.74,-190"/>
<text text-anchor="middle" x="522" y="-167.8" font-family="Times,serif" font-size="14.00">HeaderComponent </text>
</g>
<!-- SharedModule&#45;&gt;HeaderComponent  -->
<g id="edge7" class="edge">
<title>SharedModule&#45;&gt;HeaderComponent </title>
<path fill="none" stroke="black" stroke-dasharray="5,2" d="M386.4,-122.27C386.4,-140.56 386.4,-166 386.4,-166 386.4,-166 449.36,-166 449.36,-166"/>
<polygon fill="black" stroke="black" points="449.36,-169.5 459.36,-166 449.36,-162.5 449.36,-169.5"/>
</g>
<!-- FooterComponent -->
<g id="node5" class="node">
<title>FooterComponent</title>
<polygon fill="#ffffb3" stroke="black" points="1005.88,-190 888.12,-190 888.12,-154 1005.88,-154 1005.88,-190"/>
<text text-anchor="middle" x="947" y="-167.8" font-family="Times,serif" font-size="14.00">FooterComponent</text>
</g>
<!-- FooterComponent&#45;&gt;SharedModule -->
<g id="edge4" class="edge">
<title>FooterComponent&#45;&gt;SharedModule</title>
<path fill="none" stroke="black" d="M947,-153.75C947,-130.98 947,-95 947,-95 947,-95 429.44,-95 429.44,-95"/>
<polygon fill="black" stroke="black" points="429.44,-91.5 419.44,-95 429.44,-98.5 429.44,-91.5"/>
</g>
<!-- HeaderComponent -->
<g id="node6" class="node">
<title>HeaderComponent</title>
<polygon fill="#ffffb3" stroke="black" points="869.74,-190 748.26,-190 748.26,-154 869.74,-154 869.74,-190"/>
<text text-anchor="middle" x="809" y="-167.8" font-family="Times,serif" font-size="14.00">HeaderComponent</text>
</g>
<!-- HeaderComponent&#45;&gt;SharedModule -->
<g id="edge5" class="edge">
<title>HeaderComponent&#45;&gt;SharedModule</title>
<path fill="none" stroke="black" d="M809,-153.78C809,-133.63 809,-104 809,-104 809,-104 429.51,-104 429.51,-104"/>
<polygon fill="black" stroke="black" points="429.51,-100.5 419.51,-104 429.51,-107.5 429.51,-100.5"/>
</g>
</g>
</svg>
